<?xml version="1.0" encoding="utf-8"?>
<!-- Generator: Adobe Illustrator 23.0.3, SVG Export Plug-In . SVG Version: 6.00 Build 0)  -->
<svg version="1.1" id="layer1" xmlns="http://www.w3.org/2000/svg" xmlns:xlink="http://www.w3.org/1999/xlink" x="0px" y="0px"
	 viewBox="0 0 200 49.8" style="enable-background:new 0 0 200 49.8;" xml:space="preserve">
<style type="text/css">
	.st0{fill:#231815;}
</style>
<g>
	<g>
		<path d="M140.4,21.8c0-3.8-2.4-5-5.8-5c-1.2,0-23.6,0-23.6,0V22c0,0,21.2,0,22,0c1.8,0,2.4,0.4,2.4,2v7c0,11-8.2,13.6-19,13.6v5.2
			c9,0,14.2-1.6,18-4.4c4.2-3.2,6.4-8.4,6.4-14.6v-5.2C140.4,23.6,140.4,23.2,140.4,21.8z"/>
		<path d="M166.6,25.2c-2.4,0-22.6,0-22.6,0v5.2h19.8c0,4-1.8,4.6-6.4,4.6c-1.2,0-5.2,0-5.2,0v2.6c0,6.4-1.8,7.2-6.8,7.2V50
			c3.6,0,7.6-0.4,9.6-2.4c1.6-1.6,2.8-5.4,2.8-7.4c8.6,0,12.4-2,12.4-11.4C169.8,25.6,169.6,25.2,166.6,25.2z"/>
		<path d="M200,17h-6.4c-0.6,9.8-9.8,17-21.8,19.4v5.2c5.6-0.6,10-2.2,13.6-4v12.2c0,0,2.2,0,4.2,0c1.8,0,2.6-1.6,2.6-4
			c0-1.2,0-9.6,0-12.8C197.8,28,199.8,21.8,200,17z"/>
		<path d="M86.8,39v5.2c4-0.8,7.4-2,10.2-3.2v9c0,0,2.2,0,3.6,0s2-1.2,2-3c0-1,0-7,0-9.4c4.6-3.8,6.8-8,7-12.4h-6
			C103,32,94.6,37.4,86.8,39z"/>
		<path d="M91,30.4c3,0,3.6-1.2,3.6-3.2c0-0.6,0-2,0-2h-32v5.2c0,0,7,0,14.2,0v6.8c0,6.8-5.6,7.6-8,7.6V50c4,0,7.4-1.4,9.8-3.6
			c2.2-2.2,3.4-5.4,3.4-9v-6.8C86.6,30.4,90.6,30.4,91,30.4z"/>
		<path d="M35.8,22.8c0-0.6,0-1,0-1H30V16h-5.2v5.8H10.4c0-1,0-2,0-2c0-2.2,0-3.8,0-3.8H6.6c-0.6,0-1.4,0-1.4,0v5.8H0V27
			c0,0,2,0,5.2,0v11h1.4h3.8c0,0,0-1.6,0-3.8c0-2,0-5,0-7.4c4.6,0,10,0,14.2,0v6.6c0,9.2-7.8,11.4-17,11.4V50
			c6.6,0,13.2-0.6,18.2-5.6c2.8-2.6,4.2-6.4,4.2-11V27c0.8,0,1.6,0,1.6,0C34.2,27,35.8,26,35.8,22.8z"/>
		<path d="M33.2,36.6c0,0,22.2,0,23.2,0c3,0,3.8-1.2,3.8-3.2c0-0.6,0-2,0-2h-27V36.6z"/>
		<path d="M94.8,18.6c0-1.2,0-1.8,0-1.8H62.6V22c0,0,27.4,0,29,0C94.4,22,94.8,20.6,94.8,18.6z"/>
	</g>
	<g>
		<path class="st0" d="M1,1v4.4c2.4-0.6,4.6-1.2,6.8-2.6l0.6,0.6C6.4,4.8,2.6,5.8,1,6.2v3.2c0,1,0.2,1.2,2,1.2h3.2
			c0.8,0,2,0,2.8-0.2V11c-0.8,0-2.6,0.2-3,0.2H3c-2.2,0-2.8-0.6-2.8-2V1H1L1,1z M8.2,2.4C8,1.8,7.6,1.2,7.2,0.6l0.6-0.2
			C8.2,1,8.4,1.6,8.6,2.2L8.2,2.4z M9.6,2C9.4,1.8,9,0.8,8.8,0.2L9.4,0c0.2,0.6,0.6,1,0.8,1.6L9.6,2z"/>
		<path class="st0" d="M17.8,3.2c-1.2-0.6-2.4-1.2-3.6-1.6L14.4,1C15,1,16,1.4,18,2.4L17.8,3.2z M16.8,6.2c-1.2-0.8-2.4-1.2-3.6-1.6
			l0.4-0.8C15,4,16.6,5,17.2,5.4L16.8,6.2z M21.8,2.6c-0.4-0.8-0.6-1.2-1-1.8l0.6-0.2C22,1.4,22.2,2,22.6,2.4L21.8,2.6z M13.6,10.4
			c6-0.6,7.6-3.6,8.6-7.2L23,3.4c-1.6,5-3.8,7-9.2,8L13.6,10.4z M23.2,2C23,1.4,22.6,0.8,22,0.2L22.6,0c0.6,0.6,0.8,1.2,1.2,1.8
			L23.2,2z"/>
		<path class="st0" d="M32.2,11.6h-0.8V7c-2.2,1.6-4,2-4.8,2.2l-0.2-0.8c3.2-1,6.6-3,8.4-5.6h-7.6V2h4.2V0.2h0.8V2H36v1
			c-0.6,0.6-1.6,2-3.6,3.6L32.2,11.6L32.2,11.6z M37,9.2c-1.2-1-2.8-1.8-4-2.2l0.4-0.6c1,0.4,3,1.6,4,2.2L37,9.2z"/>
		<path class="st0" d="M50.6,11.4c-1-1.2-3.2-3.2-4.2-4c-1.4,1.8-3.2,3.2-5.2,4.2L40.6,11c2.8-1.2,6-4,7.8-8.8h-7V1.4h8
			c-0.6,1.8-1.2,3.8-2.6,5.2c2.2,1.8,3,2.8,4.4,4L50.6,11.4z"/>
		<path class="st0" d="M59,6.4h-3V5.2h3V6.4z M55.2,4.4V12h0.6V9H59v2c0,0.2,0,0.2-0.2,0.2h-1.2V12h1.2c0.6,0,1-0.2,1-1V4.4H55.2
			L55.2,4.4z M59,8.4h-3V7h3V8.4z M58,1.2c0.2,0.2,0.6,0.6,1,1.4c-2,0.2-2.2,0.2-3,0.2c0.2-0.2,1-2,1-2.4l-0.8-0.2
			c-0.2,0.8-0.8,2-1,2.6c-0.6,0-0.6,0-0.8,0v0.8c0.2,0,1.8-0.2,2.6-0.2c0.4,0,1.4-0.2,2-0.2c0.2,0.4,0.4,0.6,0.6,0.8l0.6-0.4
			c-0.6-0.8-1.2-2.2-1.8-2.8L58,1.2z M61,0.2v4.6c0,0.6,0.2,0.8,1,0.8h2.6c1,0,1-0.6,1-2.2L65,3.2c0,0.6,0,1.2-0.2,1.6
			c0,0.2,0,0.2-0.6,0.2H62c-0.4,0-0.4-0.2-0.4-0.6V3c1-0.2,2.8-0.8,3.8-1.6L65,0.8c-1,0.8-2.6,1.2-3.4,1.6V0.2H61z M61,6.2V11
			c0,1,0.8,1,1,1h2.4c1,0,1-0.4,1.4-2.6L65,9.2c0,1,0,1.6-0.2,1.8s0,0.2-0.6,0.2H62c-0.6,0-0.6-0.2-0.6-0.6V8.8
			c0.8-0.2,2.8-0.8,3.8-1.6l-0.6-0.6c-0.6,0.6-1.8,1.2-3.2,1.6V6L61,6.2L61,6.2z"/>
		<path class="st0" d="M73.6,0.4h0.6v2c0,0.2,0,0.8,0,0.8h5.6c0,2.2-0.4,6.4-0.6,7.4c0,0.6-0.6,1.2-2,1.2h-1.6V11h1.6
			c0.6,0,1,0,1-0.6c0.4-0.8,0.6-2,0.6-6.8H74c-0.4,3.6-1.6,6.2-5,8L68.6,11C72,9,73,7,73.2,3.6h-4.4V3h4.4c0-0.4,0-0.6,0-0.8
			L73.6,0.4z"/>
		<path class="st0" d="M86.6,10.6h-2.4V8h2.4V10.6z M83.6,6v0.6h3.6V6H83.6z M83.6,7.6v4.2h0.6v-0.6h3V7.4h-3.6V7.6z M92,4
			c-0.4-0.2-0.6-0.4-1.4-0.8C91,2.4,91,2,91,1.4h2.4C93.4,3.2,93,4.6,93,5c0,0.2-0.2,0.6-0.6,0.6h-1l0.2,0.8h1c1,0,1-0.4,1-0.8
			C93.6,5.4,94,3.4,94,1h-6v0.6h2.4c0,0.4,0,0.8-0.4,1.6c-1-0.4-1.2-0.6-1.6-0.6L88,3.2c0.4,0.2,1,0.2,1.6,0.6C89,5,87.8,5.8,87.4,6
			L88,6.6c0.6-0.4,1.6-1.2,2.4-2.6c0.6,0.4,1,0.6,1.4,0.8L92,4z M83.6,0.8v0.6h3.6V0.8H83.6z M83.2,2.4V3h4.4V2.4H83.2z M88,11.2
			c0.2-0.6,0.6-2,0.6-3.2H88c0,1-0.4,2-0.8,3L88,11.2z M89.6,7.8v3c0,1,0.6,1,1,1H92c1,0,1-0.6,1-2l-0.6-0.2c0,0,0,0.8,0,1
			c0,0.6-0.4,0.6-0.6,0.6h-1c-0.4,0-0.4-0.2-0.4-0.4v-3L89.6,7.8L89.6,7.8z M83.6,4.2v0.6h3.6V4.2H83.6z M92.2,7.4
			c-0.4-0.4-1.4-1.2-2-1.6l-0.4,0.6c0.6,0.4,1.6,1,2,1.6L92.2,7.4z M94.6,10.8c-0.4-1.2-1-2.6-1.4-3.2l-0.6,0.2
			c0.4,0.6,1,1.8,1.4,3.2L94.6,10.8z"/>
		<path class="st0" d="M103,4.4h-3.6V3.8h7.6v0.6h-3.6v2.8h4v0.6h-4V11c0.4,0,0.6,0,1.2,0h4.2v0.8h-4.4c-0.8,0-3.4-0.2-4.6-3
			c-0.4,1-1,2.2-1.8,3l-0.6-0.6c1.2-1.2,2.2-3.8,2.4-5.6l0.6,0.2c0,0.6-0.2,1-0.6,2c0.6,2,2.4,2.8,2.6,2.8L103,4.4L103,4.4z
			 M103.6,0.2v1.2h5v2.8H108V2h-9.4v2.2H98V1.4h5V0.2H103.6z"/>
	</g>
</g>
</svg>
