<?xml version="1.0" encoding="utf-8"?>
<!-- Generator: Adobe Illustrator 23.0.3, SVG Export Plug-In . SVG Version: 6.00 Build 0)  -->
<svg version="1.1" id="レイヤー_1" xmlns="http://www.w3.org/2000/svg" xmlns:xlink="http://www.w3.org/1999/xlink" x="0px"
	 y="0px" viewBox="0 0 200 63.6" style="enable-background:new 0 0 200 63.6;" xml:space="preserve">
<style type="text/css">
	.st0{fill:#231815;}
</style>
<g>
	<g>
		<path class="st0" d="M21.6,24.6L20,29.2l0,0c-0.2-1-0.8-2.6-1.6-4.6l-8.8-22H0.8v35.2h5.6V16.2c0-1.2,0-3,0-4.8
			c0-0.8,0-1.6-0.2-2.2l0,0c0.2,1.2,0.6,2.2,0.8,3l10.6,25.6h4L32,12c0.2-0.6,0.4-1.6,0.6-2.8l0,0c0,2.6-0.2,4.8-0.2,6.2v22.4h6V2.6
			h-8.2L21.6,24.6z"/>
		<rect x="44.8" y="12.6" class="st0" width="5.8" height="25.2"/>
		<path class="st0" d="M47.8,1.8c-1,0-1.8,0.2-2.4,1c-0.6,0.6-1,1.4-1,2.4s0.4,1.8,1,2.4s1.4,1,2.4,1s1.8-0.2,2.6-1
			c0.6-0.6,1-1.4,1-2.4s-0.2-1.8-1-2.4S48.8,1.8,47.8,1.8z"/>
		<path class="st0" d="M71.8,12.2c-1-0.2-2.2-0.4-3.2-0.4c-2.6,0-5.2,0.6-7.2,1.6c-2,1.2-3.6,2.8-4.8,4.8S55,22.6,55,25.4
			c0,2.4,0.4,4.6,1.6,6.4s2.6,3.4,4.4,4.4c1.8,1,4,1.6,6.4,1.6c2.8,0,5.2-0.6,7.2-1.6l0,0v-5.4L74.4,31c-0.8,0.6-1.8,1.2-2.8,1.4
			c-1,0.4-2,0.6-2.8,0.6c-2.2,0-4.2-0.6-5.6-2.2c-1.4-1.4-2-3.4-2-6s0.6-4.6,2-6.2c1.4-1.4,3.2-2.2,5.6-2.2c2,0,3.8,0.6,5.6,2
			l0.2,0.2V13l0,0C73.8,12.8,72.8,12.6,71.8,12.2z"/>
		<path class="st0" d="M91.4,12.2c-1.4,0-2.8,0.4-4,1.4c-1,0.8-1.6,2-2.2,3.4l0,0v-4.4h-5.8v25.2h5.8v-13c0-2.2,0.4-4,1.4-5.4
			c1-1.2,2.2-2,3.8-2c0.4,0,1,0,1.8,0.2c0.6,0.2,1,0.4,1.4,0.6l0.2,0.2v-6l0,0C93,12.2,92.4,12.2,91.4,12.2z"/>
		<path class="st0" d="M107.4,12c-4.2,0-7.4,1.2-9.8,3.6S94,21.2,94,25.4c0,4,1.2,7,3.4,9.4c2.2,2.2,5.4,3.4,9.2,3.4
			c4,0,7.2-1.2,9.6-3.6c2.4-2.4,3.6-5.6,3.6-9.8c0-4-1-7.2-3.2-9.4C114.4,13.2,111.4,12,107.4,12z M112.2,31.4c-1,1.4-2.8,2-5,2
			s-3.8-0.6-5-2s-1.8-3.4-1.8-6s0.6-4.8,1.8-6.2c1.2-1.4,2.8-2.2,5-2.2c2,0,3.6,0.6,4.8,2c1.2,1.4,1.8,3.4,1.8,6.2
			S113.2,30,112.2,31.4z"/>
		<path class="st0" d="M133.2,23c-1.8-0.8-3-1.4-3.6-1.8c-0.4-0.4-0.6-1-0.6-1.8c0-0.6,0.2-1.2,0.8-1.8c0.6-0.4,1.4-0.6,2.6-0.6
			c1,0,2,0.2,3,0.4s1.8,0.6,2.6,1.2l0.2,0.2v-5.4l0,0c-0.6-0.2-1.6-0.4-2.6-0.8c-1-0.2-2-0.2-3-0.2c-2.8,0-5.2,0.6-7,2.2
			c-1.8,1.4-2.6,3.2-2.6,5.6c0,1.2,0.2,2.2,0.6,3s1,1.6,1.8,2.2s2,1.2,3.6,2c1.4,0.6,2.4,1,3,1.4s1,0.6,1.2,1s0.4,0.8,0.4,1.4
			c0,1.6-1.2,2.4-3.8,2.4c-1,0-2-0.2-3.2-0.6c-1.2-0.4-2.2-1-3.4-1.6l-0.2-0.2V37l0,0c0.8,0.4,1.8,0.6,3.2,1
			c1.2,0.2,2.4,0.4,3.4,0.4c3,0,5.6-0.6,7.4-2.2c1.8-1.4,2.6-3.4,2.6-5.6c0-1.6-0.4-3.2-1.4-4.2C137.2,25,135.6,24,133.2,23z"/>
		<path class="st0" d="M155.6,12c-4.2,0-7.4,1.2-9.8,3.6c-2.4,2.4-3.6,5.6-3.6,9.8c0,4,1.2,7,3.4,9.4c2.2,2.2,5.4,3.4,9.2,3.4
			c4,0,7.2-1.2,9.6-3.6c2.4-2.4,3.6-5.6,3.6-9.8c0-4-1-7.2-3.2-9.4S159.6,12,155.6,12z M160.4,31.4c-1,1.4-2.8,2-5,2s-3.8-0.6-5-2
			s-1.8-3.4-1.8-6s0.6-4.8,1.8-6.2s2.8-2.2,5-2.2c2,0,3.6,0.6,4.8,2s1.8,3.4,1.8,6.2C162,27.8,161.6,30,160.4,31.4z"/>
		<path class="st0" d="M200,17.4v-4.8h-6V5.2h-0.2L188,6.8l0,0v5.6h-8.8V9.2c0-1.4,0.2-2.6,1-3.4c0.6-0.6,1.6-1,2.8-1
			c0.8,0,1.6,0.2,2.6,0.6h0.2v-5l0,0c-1-0.2-2.2-0.4-3.6-0.4c-1.8,0-3.4,0.4-4.6,1c-1.4,0.8-2.4,1.8-3.2,3.2s-1.2,3-1.2,4.6v3.4H169
			V17h4.2v20.4h6v-20h8.8v13c0,5.2,2.4,8,7.4,8c0.8,0,1.6,0,2.6-0.2c0.8-0.2,1.4-0.4,1.8-0.6l0,0v-4.8l-0.2,0.2
			c-0.2,0.2-0.6,0.4-1.2,0.4c-0.4,0-0.8,0.2-1.2,0.2c-1.2,0-2-0.2-2.6-0.8c-0.2-0.8-0.6-2-0.6-3.4v-12C194,17.4,200,17.4,200,17.4z"
			/>
	</g>
	<g>
		<path class="st0" d="M13.2,56.2c0,1.4-0.2,2.8-0.8,3.8s-1.2,2-2.2,2.6S8,63.4,6.8,63.4s-2.4-0.2-3.4-0.8s-1.8-1.4-2.2-2.4
			c-1-1-1.2-2.2-1.2-3.6s0.2-2.8,0.8-3.8s1.2-2,2.4-2.6c1-0.6,2.2-0.8,3.6-0.8c1.2,0,2.2,0.2,3.2,0.8s1.6,1.4,2.2,2.4
			C12.8,53.8,13.2,55,13.2,56.2z M11.4,56.6c0-1.8-0.4-3.2-1.2-4.2S8.2,51,6.8,51c-1,0-1.8,0.2-2.6,0.6s-1.2,1.2-1.8,2
			c-0.4,0.8-0.6,1.8-0.6,3s0.2,2,0.6,3c0.4,0.8,1,1.4,1.6,2c0.6,0.4,1.6,0.6,2.4,0.6c1.4,0,2.8-0.4,3.6-1.4
			C11,59.6,11.4,58.2,11.4,56.6z"/>
		<path class="st0" d="M20.6,50c-0.2-0.2-0.6-0.2-1-0.2c-1,0-1.6,0.6-1.6,2v1.4h2v1.4h-2.2v8.6h-1.6v-8.6h-1.8v-1.4H16v-1.6
			c0-1,0.2-1.8,0.8-2.4c0.6-0.6,1.4-0.8,2.2-0.8c0.4,0,0.8,0,1.2,0.2C20.6,48.6,20.6,50,20.6,50z"/>
		<path class="st0" d="M26.8,50c-0.2-0.2-0.6-0.2-1-0.2c-1,0-1.6,0.6-1.6,2v1.4h2.2v1.4H24v8.6h-1.6v-8.6h-1.6v-1.4h1.6v-1.6
			c0-1,0.2-1.8,0.8-2.4c0.6-0.6,1.4-0.8,2.2-0.8c0.4,0,0.8,0,1.2,0.2C26.8,48.6,26.8,50,26.8,50z"/>
		<path class="st0" d="M30,50c0,0.2,0,0.4-0.2,0.6s-0.4,0.2-0.8,0.2c-0.2,0-0.4,0-0.6-0.2C28,50.4,28,50.2,28,50s0-0.4,0.2-0.6
			s0.4-0.2,0.6-0.2s0.4,0,0.6,0.2C30,49.4,30,49.6,30,50z M29.8,63.4h-1.6v-10h1.6V63.4z"/>
		<path class="st0" d="M39.6,63c-0.8,0.4-1.6,0.6-2.6,0.6c-0.8,0-1.6-0.2-2.4-0.6s-1.2-1-1.6-1.8c-0.4-0.8-0.6-1.6-0.6-2.6
			c0-1.6,0.4-3,1.4-4s2.2-1.4,3.8-1.4c0.8,0,1.6,0.2,2.2,0.4v1.6c-0.6-0.4-1.4-0.8-2.4-0.8s-1.8,0.4-2.4,1c-0.6,0.6-1,1.6-1,2.8
			s0.2,2,0.8,2.8c0.6,0.6,1.4,1,2.4,1c0.8,0,1.6-0.2,2.4-0.8L39.6,63L39.6,63z"/>
		<path class="st0" d="M50,58.8h-7c0,1,0.2,2,0.8,2.6s1.4,0.8,2.4,0.8s2.2-0.4,3-1v1.4c-0.8,0.6-2,1-3.4,1s-2.4-0.4-3.2-1.4
			c-0.8-0.8-1.2-2.2-1.2-3.8c0-1,0.2-1.8,0.6-2.6c0.4-0.8,0.8-1.4,1.6-1.8c0.6-0.4,1.4-0.6,2.2-0.6c1.2,0,2.2,0.4,3,1.2
			c0.6,0.8,1,2,1,3.4C50,58,50,58.8,50,58.8z M48.4,57.6c0-0.8-0.2-1.6-0.6-2c-0.4-0.4-1-0.8-1.8-0.8c-0.6,0-1.4,0.2-1.8,0.8
			c-0.4,0.4-0.8,1.2-1,2H48.4z"/>
		<path class="st0" d="M64.4,60c0,1.2-0.4,2-1.2,2.8s-2,1-3.4,1c-0.4,0-1,0-1.8-0.2s-1-0.4-1.4-0.4v-2c0.4,0.4,0.8,0.6,1.6,0.8
			c0.6,0.2,1.2,0.4,1.8,0.4c1.8,0,2.6-0.6,2.6-2c0-0.6-0.2-1-0.6-1.4c-0.4-0.4-1.2-1-2.4-1.6c-1-0.6-2-1.2-2.4-1.8s-0.6-1.2-0.6-2
			c0-1,0.4-2,1.2-2.6s1.8-1,3.2-1s2.2,0.2,2.6,0.4v1.8c-0.6-0.6-1.6-0.8-2.8-0.8c-0.8,0-1.4,0.2-1.8,0.6c-0.4,0.4-0.6,0.8-0.6,1.4
			c0,0.4,0,0.8,0.2,1c0,0.2,0.4,0.6,0.6,0.8c0.2,0.2,0.8,0.6,1.8,1c1.2,0.6,2,1.2,2.6,1.8C64,58.4,64.4,59.2,64.4,60z"/>
		<path class="st0" d="M76,58.2c0,1.6-0.4,3-1.2,4c-0.8,1-1.8,1.4-3.2,1.4c-1.2,0-2.2-0.6-3-1.6l0,0v6H67V53.6h1.6v1.8l0,0
			c0.8-1.2,1.8-2,3.4-2c1.2,0,2.2,0.4,3,1.2C75.6,55.4,76,56.6,76,58.2z M74.4,58.2c0-1-0.2-1.8-0.8-2.6c-0.4-0.6-1.2-1-2-1
			s-1.6,0.2-2.2,1c-0.6,0.6-0.8,1.4-0.8,2.4v1.4c0,0.8,0.2,1.4,0.8,2c0.4,0.6,1.2,0.8,2,0.8c1,0,1.6-0.4,2.2-1
			C74.2,60.4,74.4,59.4,74.4,58.2z"/>
		<path class="st0" d="M86.4,58.8h-7c0,1,0.2,2,0.8,2.6c0.6,0.6,1.4,0.8,2.4,0.8s2.2-0.4,3-1v1.4c-0.8,0.6-2,1-3.4,1
			s-2.4-0.4-3.2-1.4c-0.8-0.8-1.2-2.2-1.2-3.8c0-1,0.2-1.8,0.6-2.6s0.8-1.4,1.6-1.8c0.6-0.4,1.4-0.6,2.2-0.6c1.2,0,2.2,0.4,3,1.2
			c0.6,0.8,1,2,1,3.4v0.8C86.2,58.8,86.4,58.8,86.4,58.8z M84.8,57.6c0-0.8-0.2-1.6-0.6-2s-1-0.8-1.8-0.8c-0.6,0-1.4,0.2-1.8,0.8
			c-0.4,0.4-0.8,1.2-1,2H84.8z"/>
		<path class="st0" d="M95.4,63c-0.8,0.4-1.6,0.6-2.6,0.6c-0.8,0-1.6-0.2-2.4-0.6c-0.6-0.4-1.2-1-1.6-1.8s-0.6-1.6-0.6-2.6
			c0-1.6,0.4-3,1.4-4s2.2-1.4,3.8-1.4c0.8,0,1.6,0.2,2.2,0.4v1.6c-0.6-0.4-1.4-0.8-2.4-0.8s-1.8,0.4-2.4,1s-1,1.6-1,2.8
			s0.2,2,0.8,2.8c0.6,0.6,1.4,1,2.4,1c0.8,0,1.6-0.2,2.4-0.8L95.4,63L95.4,63z"/>
		<path class="st0" d="M99.8,50c0,0.2,0,0.4-0.2,0.6s-0.4,0.2-0.6,0.2s-0.4,0-0.6-0.2s-0.2-0.4-0.2-0.8c0-0.2,0-0.4,0.2-0.6
			S98.8,49,99,49s0.4,0,0.6,0.2S99.8,49.6,99.8,50z M99.4,63.4h-1.6v-10h1.6V63.4z"/>
		<path class="st0" d="M109.8,63.4h-1.6v-1.6l0,0c-0.6,1.2-1.6,1.8-3,1.8c-1,0-1.6-0.2-2.2-0.8c-0.6-0.4-0.8-1.2-0.8-2
			c0-1.8,1-2.8,3.2-3.2l3-0.4c0-1.6-0.6-2.4-2-2.4c-1.2,0-2.2,0.4-3.2,1.2v-1.6c0.2-0.2,0.8-0.4,1.4-0.6s1.2-0.2,1.8-0.2
			c2.2,0,3.4,1.2,3.4,3.6C109.8,57,109.8,63.4,109.8,63.4z M108.2,58.4l-2.4,0.2c-0.8,0-1.4,0.2-1.6,0.6c-0.2,0.2-0.4,0.6-0.4,1.2
			c0,0.4,0.2,0.8,0.4,1.2c0.4,0.2,0.8,0.4,1.4,0.4c0.8,0,1.4-0.2,2-0.8c0.4-0.6,0.8-1.2,0.8-2L108.2,58.4L108.2,58.4z"/>
		<path class="st0" d="M114.4,63.4h-1.6V48.6h1.6V63.4z"/>
		<path class="st0" d="M119.4,50c0,0.2,0,0.4-0.2,0.6s-0.4,0.2-0.6,0.2s-0.4,0-0.6-0.2s-0.2-0.4-0.2-0.8c0-0.2,0-0.4,0.2-0.6
			s0.4-0.2,0.6-0.2s0.4,0,0.6,0.2S119.4,49.6,119.4,50z M119.2,63.4h-1.6v-10h1.6V63.4z"/>
		<path class="st0" d="M127.8,60.8c0,0.8-0.2,1.6-1,2s-1.4,0.8-2.6,0.8c-0.8,0-1.8-0.2-2.4-0.6v-1.6c0.8,0.6,1.6,1,2.6,1
			c1.2,0,1.8-0.4,1.8-1.4c0-0.4,0-0.6-0.4-0.8c-0.2-0.2-0.8-0.6-1.6-1c-0.8-0.4-1.4-0.8-1.8-1.2s-0.4-1-0.4-1.6c0-0.8,0.2-1.4,1-2
			c0.6-0.6,1.4-0.8,2.4-0.8c0.8,0,1.4,0.2,2,0.4v1.6c-0.6-0.4-1.4-0.6-2.2-0.6c-0.4,0-0.8,0-1.2,0.4c-0.2,0.2-0.4,0.6-0.4,1
			s0,0.8,0.4,1c0.2,0.2,0.8,0.4,1.4,0.8c0.8,0.4,1.6,0.8,2,1.2C127.6,59.6,127.8,60.2,127.8,60.8z"/>
		<path class="st0" d="M134.8,63.4c-0.4,0.2-0.8,0.2-1.4,0.2c-1.6,0-2.6-1-2.6-2.8V55H129v-1.4h1.6v-2.4l1.6-0.4v2.8h2.4V55h-2.4
			v5.6c0,0.6,0,1,0.2,1.4c0.2,0.2,0.6,0.4,1,0.4s0.6,0,1-0.2L134.8,63.4L134.8,63.4z"/>
	</g>
</g>
</svg>
